<svg width="48" height="48" viewBox="0 0 48 48" fill="none" xmlns="http://www.w3.org/2000/svg">
<circle cx="24" cy="24" r="24" fill="black"/>
<path fill-rule="evenodd" clip-rule="evenodd" d="M29.9395 8.57408C29.9395 10.0369 29.2934 11.4997 28.3815 12.5552C27.4124 13.7218 25.7406 14.5921 24.4105 14.5923C24.2586 14.5923 24.1064 14.5736 24.0115 14.5551C23.9926 14.4811 23.9545 14.2588 23.9545 14.0366C23.9545 12.5552 24.7336 11.0924 25.5695 10.1665C26.6335 8.96296 28.4005 8.05558 29.8825 8C29.9206 8.16674 29.9395 8.37041 29.9395 8.57408ZM35.1663 17.7886C35.2033 17.765 35.2286 17.7488 35.2404 17.7399C33.2645 14.981 30.2624 14.9067 29.4263 14.9066C28.1488 14.9066 27.0053 15.3483 26.044 15.7197C25.3469 15.989 24.7456 16.2213 24.2584 16.2213C23.7209 16.2213 23.1055 15.9789 22.4188 15.7084C21.5518 15.3669 20.571 14.9806 19.4895 14.9806C15.8417 14.9806 12.1367 17.9249 12.1367 23.48C12.1367 26.9426 13.5047 30.5904 15.1956 32.9421C16.6585 34.9419 17.9315 36.5714 19.7555 36.5714C20.6205 36.5714 21.2548 36.3091 21.9217 36.0332C22.6612 35.7273 23.4408 35.4048 24.6195 35.4048C25.8098 35.4048 26.5213 35.7076 27.2076 35.9996C27.8469 36.2716 28.4644 36.5343 29.4264 36.5343C31.4213 36.5343 32.7324 34.7753 33.9863 33.0161C35.3924 31.0164 35.9814 29.0535 36.0004 28.961C35.8863 28.9241 32.0674 27.4241 32.0674 23.1838C32.0674 19.7708 34.6689 18.1068 35.1663 17.7886Z" fill="white"/>
</svg>
