<svg width="48" height="48" viewBox="0 0 48 48" fill="none" xmlns="http://www.w3.org/2000/svg">
<rect width="48" height="48" rx="24" fill="#F7F7F7"/>
<path d="M38.9994 24.36C38.9994 23.3067 38.907 22.3067 38.7487 21.3334H23.8359V27.3467H32.3745C31.9917 29.32 30.87 30.9867 29.2072 32.12V36.12H34.3012C37.2838 33.3334 38.9994 29.2267 38.9994 24.36Z" fill="#4285F4"/>
<path d="M23.8372 40C28.1131 40 31.6895 38.56 34.3025 36.12L29.2084 32.12C27.7832 33.08 25.9752 33.6667 23.8372 33.6667C19.7065 33.6667 16.2093 30.8533 14.9556 27.0533H9.70312V31.1733C12.303 36.4 17.6478 40 23.8372 40Z" fill="#34A853"/>
<path d="M14.9549 27.0533C14.6249 26.0933 14.4534 25.0667 14.4534 24C14.4534 22.9333 14.6381 21.9067 14.9549 20.9467V16.8267H9.70243C8.62026 18.9867 8 21.4133 8 24C8 26.5867 8.62026 29.0133 9.70243 31.1733L14.9549 27.0533Z" fill="#FBBC05"/>
<path d="M23.8372 14.3333C26.1731 14.3333 28.2583 15.1467 29.9079 16.7333L34.4213 12.1733C31.6895 9.58667 28.1131 8 23.8372 8C17.6478 8 12.303 11.6 9.70312 16.8267L14.9556 20.9467C16.2093 17.1467 19.7065 14.3333 23.8372 14.3333Z" fill="#EA4335"/>
</svg>
