<svg width="25" height="25" viewBox="0 0 25 25" fill="none" xmlns="http://www.w3.org/2000/svg">
<path d="M8.75 22.25H16.25" stroke="#2A9D8F" stroke-width="2" stroke-linecap="round" stroke-linejoin="round"/>
<path d="M7.87847 16.1574C6.98667 15.4608 6.26435 14.5712 5.76581 13.5554C5.26727 12.5396 5.00548 11.4239 5.00011 10.2924C4.97765 6.22715 8.255 2.84783 12.3192 2.75217C13.894 2.71425 15.4409 3.17317 16.7402 4.06384C18.0396 4.95451 19.0256 6.23169 19.5582 7.71424C20.0909 9.19678 20.1432 10.8094 19.7078 12.3234C19.2724 13.8373 18.3713 15.1758 17.1324 16.1488C16.8596 16.3602 16.6383 16.6309 16.4854 16.9404C16.3326 17.2499 16.2521 17.5901 16.25 17.9353L16.25 18.5001C16.25 18.699 16.171 18.8897 16.0303 19.0304C15.8897 19.171 15.6989 19.25 15.5 19.25H9.49999C9.30108 19.25 9.11031 19.171 8.96966 19.0304C8.82901 18.8897 8.74999 18.699 8.74999 18.5001L8.74998 17.9346C8.74912 17.5917 8.67021 17.2534 8.51921 16.9455C8.36822 16.6376 8.1491 16.368 7.87847 16.1574V16.1574Z" stroke="#2A9D8F" stroke-width="2" stroke-linecap="round" stroke-linejoin="round"/>
<path d="M13.2617 5.82349C14.1791 5.97942 15.0254 6.41634 15.6838 7.0739C16.3421 7.73147 16.7801 8.57724 16.9372 9.4944" stroke="#2A9D8F" stroke-width="2" stroke-linecap="round" stroke-linejoin="round"/>
</svg>
