<svg width="25" height="25" viewBox="0 0 25 25" fill="none" xmlns="http://www.w3.org/2000/svg">
<path d="M9.5 11H17" stroke="#2A9D8F" stroke-width="2" stroke-linecap="round" stroke-linejoin="round"/>
<path d="M9.5 14H17" stroke="#2A9D8F" stroke-width="2" stroke-linecap="round" stroke-linejoin="round"/>
<path d="M3.5 19.25C3.89782 19.25 4.27936 19.092 4.56066 18.8107C4.84196 18.5294 5 18.1478 5 17.75V6.5C5 6.30109 5.07902 6.11032 5.21967 5.96967C5.36032 5.82902 5.55109 5.75 5.75 5.75H20.75C20.9489 5.75 21.1397 5.82902 21.2803 5.96967C21.421 6.11032 21.5 6.30109 21.5 6.5V17.75C21.5 18.1478 21.342 18.5294 21.0607 18.8107C20.7794 19.092 20.3978 19.25 20 19.25H3.5Z" stroke="#2A9D8F" stroke-width="2" stroke-linecap="round" stroke-linejoin="round"/>
<path d="M3.5 19.25C3.10218 19.25 2.72064 19.092 2.43934 18.8107C2.15804 18.5294 2 18.1478 2 17.75V8.75" stroke="#2A9D8F" stroke-width="2" stroke-linecap="round" stroke-linejoin="round"/>
</svg>
