<svg width="25" height="25" viewBox="0 0 25 25" fill="none" xmlns="http://www.w3.org/2000/svg">
<path d="M20.75 20.75V11.3318C20.75 11.2273 20.7282 11.124 20.6859 11.0284C20.6436 10.9328 20.5818 10.8471 20.5045 10.7768L13.004 3.95793C12.8659 3.83242 12.686 3.76287 12.4995 3.76288C12.3129 3.76288 12.133 3.83244 11.9949 3.95797L4.49545 10.7769C4.41814 10.8471 4.35637 10.9328 4.3141 11.0284C4.27183 11.1239 4.25 11.2273 4.25 11.3318V20.75" stroke="#B8B7B7" stroke-width="2" stroke-linecap="round" stroke-linejoin="round"/>
<path d="M2 20.75H23" stroke="#B8B7B7" stroke-width="2" stroke-linecap="round" stroke-linejoin="round"/>
<path d="M14.75 20.7493V15.4993C14.75 15.3004 14.671 15.1096 14.5303 14.9689C14.3897 14.8283 14.1989 14.7493 14 14.7493H11C10.8011 14.7493 10.6103 14.8283 10.4697 14.9689C10.329 15.1096 10.25 15.3004 10.25 15.4993V20.7493" stroke="#B8B7B7" stroke-width="2" stroke-linecap="round" stroke-linejoin="round"/>
</svg>
