<svg width="25" height="25" viewBox="0 0 25 25" fill="none" xmlns="http://www.w3.org/2000/svg">
<path d="M8.75 22.25H16.25" stroke="#B8B7B7" stroke-width="2" stroke-linecap="round" stroke-linejoin="round"/>
<path d="M7.87847 16.1573C6.98667 15.4608 6.26435 14.5712 5.76581 13.5553C5.26727 12.5395 5.00548 11.4239 5.00011 10.2923C4.97765 6.22709 8.255 2.84777 12.3192 2.75211C13.894 2.71419 15.4409 3.17311 16.7402 4.06378C18.0396 4.95444 19.0256 6.23163 19.5582 7.71418C20.0909 9.19672 20.1432 10.8094 19.7078 12.3233C19.2724 13.8373 18.3713 15.1757 17.1324 16.1487C16.8596 16.3602 16.6383 16.6308 16.4854 16.9403C16.3326 17.2498 16.2521 17.59 16.25 17.9352L16.25 18.5C16.25 18.6989 16.171 18.8897 16.0303 19.0303C15.8897 19.171 15.6989 19.25 15.5 19.25H9.49999C9.30108 19.25 9.11031 19.171 8.96966 19.0303C8.82901 18.8897 8.74999 18.6989 8.74999 18.5L8.74998 17.9346C8.74912 17.5916 8.67021 17.2534 8.51921 16.9454C8.36822 16.6375 8.1491 16.368 7.87847 16.1573V16.1573Z" stroke="#B8B7B7" stroke-width="2" stroke-linecap="round" stroke-linejoin="round"/>
<path d="M13.2617 5.82349C14.1791 5.97942 15.0254 6.41634 15.6838 7.0739C16.3421 7.73147 16.7801 8.57724 16.9372 9.4944" stroke="#B8B7B7" stroke-width="2" stroke-linecap="round" stroke-linejoin="round"/>
</svg>
