<svg width="25" height="25" viewBox="0 0 25 25" fill="none" xmlns="http://www.w3.org/2000/svg">
<path d="M17 8.5C17 7.94772 16.5523 7.5 16 7.5C15.4477 7.5 15 7.94772 15 8.5V9C15 9.55228 15.4477 10 16 10C16.5523 10 17 9.55228 17 9V8.5Z" fill="#B8B7B7"/>
<path d="M9 7.5C9.55229 7.5 10 7.94772 10 8.5V9C10 9.55228 9.55229 10 9 10C8.44772 10 8 9.55228 8 9V8.5C8 7.94772 8.44772 7.5 9 7.5Z" fill="#B8B7B7"/>
<path d="M8.55279 12.1058C9.0441 11.8601 9.64095 12.0569 9.8904 12.545L9.89113 12.5464C9.89362 12.551 9.89968 12.562 9.90939 12.5785C9.92889 12.6115 9.96265 12.666 10.0113 12.7347C10.1095 12.8733 10.2633 13.063 10.4769 13.2528C10.8956 13.625 11.5428 14.0002 12.5 14.0002C13.4572 14.0002 14.1044 13.625 14.5231 13.2528C14.7367 13.063 14.8905 12.8733 14.9887 12.7347C15.0374 12.666 15.0711 12.6115 15.0906 12.5785C15.0974 12.5669 15.1025 12.558 15.1057 12.5522L15.1064 12.5513C15.1076 12.5493 15.1089 12.5464 15.1089 12.5464L15.1096 12.545C15.359 12.0569 15.9559 11.8601 16.4472 12.1058C16.9412 12.3528 17.1414 12.9535 16.8944 13.4474L16 13.0002C16.8944 13.4474 16.894 13.4483 16.894 13.4483L16.8925 13.4513L16.8901 13.4559L16.8842 13.4674C16.8817 13.4723 16.8787 13.4779 16.8755 13.484C16.873 13.4887 16.8703 13.4936 16.8675 13.499C16.8541 13.5237 16.8362 13.5556 16.8137 13.5938C16.7687 13.6701 16.7048 13.772 16.6207 13.8907C16.4532 14.1272 16.2008 14.4375 15.8519 14.7476C15.1456 15.3754 14.0428 16.0002 12.5 16.0002C10.9572 16.0002 9.85443 15.3754 9.14814 14.7476C8.7992 14.4375 8.54677 14.1272 8.37929 13.8907C8.29516 13.772 8.23127 13.6701 8.18631 13.5938C8.1638 13.5556 8.14593 13.5237 8.13255 13.499C8.12586 13.4866 8.12028 13.476 8.11579 13.4674L8.10987 13.4559L8.10752 13.4513L8.1065 13.4493L8.10602 13.4483C8.10602 13.4483 8.10557 13.4474 9 13.0002L8.10557 13.4474C7.85859 12.9535 8.05881 12.3528 8.55279 12.1058Z" fill="#B8B7B7"/>
<path fill-rule="evenodd" clip-rule="evenodd" d="M2.5 3C1.94772 3 1.5 3.44772 1.5 4V19C1.5 19.5523 1.94772 20 2.5 20H5V21.5C5 21.8466 5.17945 22.1684 5.47427 22.3507C5.76909 22.5329 6.13723 22.5494 6.44721 22.3944L11.2361 20H22.5C23.0523 20 23.5 19.5523 23.5 19V4C23.5 3.44772 23.0523 3 22.5 3H2.5ZM3.5 18V5H21.5V18H11C10.8448 18 10.6916 18.0361 10.5528 18.1056L7 19.882V19C7 18.4477 6.55228 18 6 18H3.5Z" fill="#B8B7B7"/>
</svg>
