<svg width="25" height="25" viewBox="0 0 25 25" fill="none" xmlns="http://www.w3.org/2000/svg">
<path fill-rule="evenodd" clip-rule="evenodd" d="M12.5 3.5C10.8431 3.5 9.5 4.84315 9.5 6.5C9.5 8.15685 10.8431 9.5 12.5 9.5C14.1569 9.5 15.5 8.15685 15.5 6.5C15.5 4.84315 14.1569 3.5 12.5 3.5ZM7.5 6.5C7.5 3.73858 9.73858 1.5 12.5 1.5C15.2614 1.5 17.5 3.73858 17.5 6.5C17.5 9.26142 15.2614 11.5 12.5 11.5C9.73858 11.5 7.5 9.26142 7.5 6.5ZM2.5 22.5C2.5 16.9772 6.97717 12.5 12.5 12.5C18.0228 12.5 22.5 16.9772 22.5 22.5C22.5 23.0523 22.0523 23.5 21.5 23.5C20.9477 23.5 20.5 23.0523 20.5 22.5C20.5 18.0817 16.9183 14.5 12.5 14.5C8.08173 14.5 4.5 18.0817 4.5 22.5C4.5 23.0523 4.05228 23.5 3.5 23.5C2.94772 23.5 2.5 23.0523 2.5 22.5Z" fill="#B8B7B7"/>
</svg>
