<svg width="34" height="35" viewBox="0 0 34 35" fill="none" xmlns="http://www.w3.org/2000/svg">
<rect x="17" y="0.5" width="24" height="24" rx="12" transform="rotate(45 17 0.5)" fill="#F2F4F7"/>
<g clip-path="url(#clip0_1603_30431)">
<path d="M22.2657 16.0824L22.2665 16.0824C23.0384 16.0723 23.6736 16.6973 23.676 17.4695C23.6783 18.2187 23.0826 18.8283 22.3337 18.8433L22.3333 18.8433L20.1441 18.8891L19.9412 18.8934L19.8338 19.0656L17.6858 22.5089L17.685 22.5102C17.6151 22.6233 17.56 22.7073 17.4915 22.7659C17.4269 22.8212 17.3516 22.8628 17.2702 22.8881C17.1341 22.9304 16.9565 22.9467 16.7486 22.9439C16.5532 22.9412 16.3551 22.9225 16.1653 22.9045C16.1552 22.9035 16.1451 22.9026 16.1351 22.9016C16.0042 22.8892 15.8896 22.8636 15.7957 22.7977C15.6518 22.6969 15.5557 22.5416 15.5297 22.3688C15.5127 22.2563 15.5407 22.1432 15.5881 22.0212C15.634 21.9029 15.7059 21.7576 15.7966 21.5755L15.7966 21.5754L16.8672 19.4243L17.1361 18.8841L16.5326 18.8822L14.9635 18.8774L14.9635 18.8774C14.8915 18.8772 14.8416 18.8771 14.8018 18.879L14.801 18.8791L14.7988 18.8792L14.6423 18.8871L14.5379 19.0041C14.5043 19.0418 14.4717 19.083 14.4478 19.1132C14.4426 19.1197 14.4378 19.1258 14.4335 19.1311C14.3754 19.2039 14.317 19.2768 14.2585 19.35C14.1365 19.5023 14.014 19.6554 13.8925 19.8085C13.8204 19.8993 13.7641 19.9669 13.6995 20.0136C13.6385 20.0577 13.57 20.0905 13.4972 20.1104C13.4198 20.1315 13.3312 20.133 13.2149 20.1323L13.2126 20.5073L13.2149 20.1323C13.16 20.1319 13.1073 20.1319 13.0568 20.1319C12.893 20.1318 12.7528 20.1317 12.6377 20.1213L12.604 20.4948L12.6377 20.1213C12.5309 20.1116 12.4366 20.0916 12.3528 20.0422C12.2218 19.9651 12.1223 19.8439 12.0724 19.7006C12.0405 19.6091 12.0393 19.5131 12.0507 19.4066C12.0826 19.1102 12.1422 18.8119 12.2099 18.5001C12.2235 18.4376 12.2375 18.3743 12.2516 18.3103C12.3066 18.0609 12.3639 17.8013 12.4082 17.5426L12.4193 17.4781L12.4079 17.4138C12.3619 17.1545 12.303 16.8943 12.2464 16.6443C12.2319 16.5805 12.2176 16.5173 12.2037 16.455C12.134 16.1428 12.0726 15.844 12.0389 15.5473C12.0267 15.4405 12.0274 15.3447 12.0586 15.2541C12.1072 15.1122 12.205 14.993 12.3341 14.9175C12.4166 14.8692 12.5101 14.8498 12.617 14.8408C12.7319 14.8311 12.872 14.8318 13.0357 14.8328C13.0863 14.833 13.139 14.8333 13.194 14.8333C13.3102 14.8333 13.399 14.8353 13.4769 14.857L13.5775 14.4958L13.4769 14.857C13.5503 14.8775 13.6196 14.9109 13.6815 14.9559C13.7473 15.0037 13.8045 15.0724 13.8771 15.1635C13.9996 15.3174 14.123 15.4712 14.2459 15.6243C14.3049 15.6978 14.3638 15.7711 14.4223 15.8442C14.4675 15.9006 14.4987 15.9395 14.5252 15.9693L14.5258 15.97L14.5273 15.9716L14.6307 16.0874L14.7856 16.0962C14.8361 16.0991 14.8886 16.099 14.9273 16.0989C14.9357 16.0989 14.9434 16.0989 14.9503 16.0989L16.5195 16.1038L17.1296 16.1056L16.8557 15.5604L15.7719 13.4027L15.7719 13.4027C15.6801 13.22 15.6072 13.0741 15.5604 12.9552L15.2115 13.0925L15.5604 12.9552C15.5121 12.8323 15.4834 12.7187 15.4996 12.6065C15.5245 12.4347 15.619 12.2816 15.7605 12.1828C15.8528 12.1184 15.9663 12.0935 16.0973 12.0819C16.1057 12.0811 16.114 12.0804 16.1224 12.0797C16.3128 12.0628 16.5131 12.045 16.7106 12.0436C16.919 12.0421 17.0972 12.0596 17.233 12.1025C17.3152 12.1285 17.3914 12.1709 17.4571 12.2272C17.5269 12.287 17.583 12.3723 17.6535 12.4857L17.6535 12.4857L17.6543 12.4869L19.8151 15.9303L19.9267 16.1083L20.1368 16.106L22.2657 16.0824Z" fill="#667085" stroke="#F2F4F7" stroke-width="0.75" stroke-linecap="round"/>
</g>
<defs>
<clipPath id="clip0_1603_30431">
<rect width="12" height="12" fill="white" transform="translate(17 8.98535) rotate(45)"/>
</clipPath>
</defs>
</svg>
