<svg width="141" height="7" viewBox="0 0 141 7" fill="none" xmlns="http://www.w3.org/2000/svg">
<path d="M0.333333 3.5C0.333333 4.97276 1.52724 6.16667 3 6.16667C4.47276 6.16667 5.66667 4.97276 5.66667 3.5C5.66667 2.02724 4.47276 0.833333 3 0.833333C1.52724 0.833333 0.333333 2.02724 0.333333 3.5ZM135.333 3.5C135.333 4.97276 136.527 6.16667 138 6.16667C139.473 6.16667 140.667 4.97276 140.667 3.5C140.667 2.02724 139.473 0.833333 138 0.833333C136.527 0.833333 135.333 2.02724 135.333 3.5ZM4.98529 4C5.26144 4 5.48529 3.77614 5.48529 3.5C5.48529 3.22386 5.26144 3 4.98529 3V4ZM8.95588 3C8.67974 3 8.45588 3.22386 8.45588 3.5C8.45588 3.77614 8.67974 4 8.95588 4V3ZM12.9265 4C13.2026 4 13.4265 3.77614 13.4265 3.5C13.4265 3.22386 13.2026 3 12.9265 3V4ZM16.8971 3C16.6209 3 16.3971 3.22386 16.3971 3.5C16.3971 3.77614 16.6209 4 16.8971 4V3ZM20.8676 4C21.1438 4 21.3676 3.77614 21.3676 3.5C21.3676 3.22386 21.1438 3 20.8676 3V4ZM24.8382 3C24.5621 3 24.3382 3.22386 24.3382 3.5C24.3382 3.77614 24.5621 4 24.8382 4V3ZM28.8088 4C29.085 4 29.3088 3.77614 29.3088 3.5C29.3088 3.22386 29.085 3 28.8088 3V4ZM32.7794 3C32.5033 3 32.2794 3.22386 32.2794 3.5C32.2794 3.77614 32.5033 4 32.7794 4V3ZM36.75 4C37.0261 4 37.25 3.77614 37.25 3.5C37.25 3.22386 37.0261 3 36.75 3V4ZM40.7206 3C40.4444 3 40.2206 3.22386 40.2206 3.5C40.2206 3.77614 40.4444 4 40.7206 4V3ZM44.6912 4C44.9673 4 45.1912 3.77614 45.1912 3.5C45.1912 3.22386 44.9673 3 44.6912 3V4ZM48.6618 3C48.3856 3 48.1618 3.22386 48.1618 3.5C48.1618 3.77614 48.3856 4 48.6618 4V3ZM52.6324 4C52.9085 4 53.1324 3.77614 53.1324 3.5C53.1324 3.22386 52.9085 3 52.6324 3V4ZM56.6029 3C56.3268 3 56.1029 3.22386 56.1029 3.5C56.1029 3.77614 56.3268 4 56.6029 4V3ZM60.5735 4C60.8497 4 61.0735 3.77614 61.0735 3.5C61.0735 3.22386 60.8497 3 60.5735 3V4ZM64.5441 3C64.268 3 64.0441 3.22386 64.0441 3.5C64.0441 3.77614 64.268 4 64.5441 4V3ZM68.5147 4C68.7909 4 69.0147 3.77614 69.0147 3.5C69.0147 3.22386 68.7909 3 68.5147 3V4ZM72.4853 3C72.2092 3 71.9853 3.22386 71.9853 3.5C71.9853 3.77614 72.2092 4 72.4853 4V3ZM76.4559 4C76.732 4 76.9559 3.77614 76.9559 3.5C76.9559 3.22386 76.732 3 76.4559 3V4ZM80.4265 3C80.1503 3 79.9265 3.22386 79.9265 3.5C79.9265 3.77614 80.1503 4 80.4265 4V3ZM84.3971 4C84.6732 4 84.8971 3.77614 84.8971 3.5C84.8971 3.22386 84.6732 3 84.3971 3V4ZM88.3677 3C88.0915 3 87.8677 3.22386 87.8677 3.5C87.8677 3.77614 88.0915 4 88.3677 4V3ZM92.3382 4C92.6144 4 92.8382 3.77614 92.8382 3.5C92.8382 3.22386 92.6144 3 92.3382 3V4ZM96.3088 3C96.0327 3 95.8088 3.22386 95.8088 3.5C95.8088 3.77614 96.0327 4 96.3088 4V3ZM100.279 4C100.556 4 100.779 3.77614 100.779 3.5C100.779 3.22386 100.556 3 100.279 3V4ZM104.25 3C103.974 3 103.75 3.22386 103.75 3.5C103.75 3.77614 103.974 4 104.25 4V3ZM108.221 4C108.497 4 108.721 3.77614 108.721 3.5C108.721 3.22386 108.497 3 108.221 3V4ZM112.191 3C111.915 3 111.691 3.22386 111.691 3.5C111.691 3.77614 111.915 4 112.191 4V3ZM116.162 4C116.438 4 116.662 3.77614 116.662 3.5C116.662 3.22386 116.438 3 116.162 3V4ZM120.132 3C119.856 3 119.632 3.22386 119.632 3.5C119.632 3.77614 119.856 4 120.132 4V3ZM124.103 4C124.379 4 124.603 3.77614 124.603 3.5C124.603 3.22386 124.379 3 124.103 3V4ZM128.074 3C127.797 3 127.574 3.22386 127.574 3.5C127.574 3.77614 127.797 4 128.074 4V3ZM132.044 4C132.32 4 132.544 3.77614 132.544 3.5C132.544 3.22386 132.32 3 132.044 3V4ZM136.015 3C135.739 3 135.515 3.22386 135.515 3.5C135.515 3.77614 135.739 4 136.015 4V3ZM3 4H4.98529V3H3V4ZM8.95588 4H12.9265V3H8.95588V4ZM16.8971 4H20.8676V3H16.8971V4ZM24.8382 4H28.8088V3H24.8382V4ZM32.7794 4H36.75V3H32.7794V4ZM40.7206 4H44.6912V3H40.7206V4ZM48.6618 4H52.6324V3H48.6618V4ZM56.6029 4H60.5735V3H56.6029V4ZM64.5441 4H68.5147V3H64.5441V4ZM72.4853 4H76.4559V3H72.4853V4ZM80.4265 4H84.3971V3H80.4265V4ZM88.3677 4H92.3382V3H88.3677V4ZM96.3088 4H100.279V3H96.3088V4ZM104.25 4H108.221V3H104.25V4ZM112.191 4H116.162V3H112.191V4ZM120.132 4H124.103V3H120.132V4ZM128.074 4H132.044V3H128.074V4ZM136.015 4H138V3H136.015V4Z" fill="#D0D5DD"/>
</svg>
