<svg width="37" height="36" viewBox="0 0 37 36" fill="none" xmlns="http://www.w3.org/2000/svg">
<path fill-rule="evenodd" clip-rule="evenodd" d="M14.0029 23.5126V20.5194H17.9898V24.4672C17.7502 24.4169 17.3315 24.4417 16.8529 24.47C15.611 24.5435 13.9659 24.6408 14.0029 23.5126ZM19.0889 20.5194H23.0758C23.0799 20.8772 23.0861 21.2031 23.0917 21.5C23.1209 23.0501 23.1352 23.8079 22.7637 24.1718C22.4083 24.5198 21.6998 24.5072 20.3137 24.4827C19.9532 24.4763 19.5468 24.4691 19.0889 24.4672V20.5194ZM14.0029 16.4392C13.9616 15.3106 15.6162 15.4084 16.8587 15.4819H16.8587C17.3368 15.5101 17.7538 15.5348 17.9898 15.4846V19.4324H14.0029V16.4392ZM20.2876 15.4685C21.6966 15.443 22.4119 15.43 22.7681 15.7812C23.1354 16.1432 23.1211 16.8923 23.0921 18.4135C23.0863 18.7206 23.0799 19.0592 23.0758 19.4324H19.0889V15.4846C19.5358 15.4822 19.9336 15.4749 20.2876 15.4685ZM17.7399 4.06887L5.71586 14.1024C4.76128 14.8101 5.22201 16.7373 6.47771 16.7042H7.70329C7.68882 17.103 7.69582 19.9503 7.70227 22.5759V22.5761C7.70257 22.6986 7.70287 22.8207 7.70317 22.942C2.90448 25.3008 0.93794 27.5535 1.49104 29.5623C2.31312 32.5253 11.0759 33.221 20.5855 30.4446C30.0921 27.6682 35.0547 23.4072 35.5726 20.417C35.8661 18.723 33.8397 16.8682 29.2888 17.2854C29.2901 17.0687 29.2918 16.8738 29.2941 16.7042H30.5197C31.7754 16.7373 32.2361 14.8101 31.2815 14.1024L26.7104 10.2871V5.90574C26.7104 5.70097 26.5388 5.52933 26.331 5.52933C25.9037 5.53297 25.5495 5.5246 25.2562 5.51766C24.5689 5.50141 24.2157 5.49306 24.0379 5.66556C23.8499 5.84803 23.8583 6.23286 23.8756 7.02475C23.8812 7.28125 23.8878 7.58045 23.8889 7.92931L19.2605 4.06887C18.8028 3.68342 18.2006 3.68342 17.7399 4.06887ZM29.286 18.113C29.2845 19.1707 29.2889 20.5175 29.2942 21.9221C29.9267 21.4027 30.3836 20.9291 30.6973 20.5315C31.7738 19.1695 31.0443 17.9603 29.286 18.113ZM7.68172 28.1709C7.6836 27.9847 7.68859 27.8029 7.69334 27.6301L7.69334 27.63C7.69782 27.4668 7.70208 27.3116 7.70329 27.1683C7.71091 27.0291 7.70949 25.7233 7.70584 24.0765C5.74015 25.2524 5.43197 26.0812 5.69478 27.0268C5.85465 27.6048 6.5652 27.9848 7.68172 28.1709ZM27.4873 31.1372H20.8774C22.1535 30.7462 23.4912 30.2796 24.8525 29.7429C26.4649 29.1074 27.9661 28.4305 29.3075 27.747C29.3058 28.4025 29.3017 28.9537 29.2941 29.3485C29.2941 30.3332 28.4811 31.1372 27.4873 31.1372Z" fill="#2A9D8F"/>
</svg>
