<svg width="81" height="27" viewBox="0 0 81 27" fill="none" xmlns="http://www.w3.org/2000/svg">
<g clip-path="url(#clip0_3917_3665)">
<path d="M69.326 6.88957C69.2996 6.88957 69.2713 6.88552 69.2429 6.87741C69.1497 6.85107 69.0565 6.82675 68.9612 6.80243C68.7708 6.7538 68.5823 6.70922 68.3959 6.66869C68.2317 6.63424 68.1264 6.47213 68.1608 6.30799C68.1953 6.14386 68.3574 6.03848 68.5215 6.07293C68.7161 6.11346 68.9126 6.16007 69.1112 6.21275C69.2105 6.23707 69.3078 6.26341 69.405 6.29178C69.5671 6.33636 69.6603 6.50455 69.6158 6.66667C69.5813 6.80041 69.4597 6.88957 69.326 6.88957Z" fill="#073E36"/>
<path fill-rule="evenodd" clip-rule="evenodd" d="M58.9751 20.3288C58.7988 18.7827 58.971 16.9934 59.4938 14.963C60.276 11.9315 61.4939 9.79363 63.1494 8.54739C64.809 7.28698 67.0016 7.00936 69.7271 7.71049C71.5812 8.1867 72.9977 8.93038 73.9704 9.93953C74.943 10.9487 75.5226 12.2111 75.707 13.7289C75.9076 15.2507 75.7495 17.0116 75.2348 19.0137C74.7161 21.03 73.9987 22.6714 73.0808 23.9358C72.1831 25.1902 71.0625 26.0311 69.719 26.4587C68.3755 26.8863 66.7827 26.864 64.9448 26.3898C63.1231 25.9217 61.7168 25.18 60.7259 24.1668C59.7552 23.1435 59.1716 21.8649 58.9751 20.3288ZM62.6529 18.3471C62.6468 17.3704 62.811 16.2234 63.1514 14.9043C63.658 12.9346 64.3247 11.5141 65.1474 10.6407C65.9762 9.75925 67.0056 9.47758 68.2356 9.7937C69.0725 10.0105 69.6926 10.4158 70.0959 11.0116C70.4991 11.6073 70.7078 12.3834 70.72 13.3419C70.7402 14.3024 70.5822 15.4311 70.2478 16.7321C69.9115 18.0411 69.5001 19.1212 69.0138 19.9702C68.5396 20.8132 67.9783 21.4029 67.3359 21.7393C66.6935 22.0757 65.9559 22.1365 65.1271 21.9237C64.3064 21.7129 63.6884 21.3077 63.2791 20.7099C62.8799 20.104 62.6711 19.3157 62.6529 18.3471Z" fill="#2A9D8F"/>
<path d="M66.0522 22.3515C65.732 22.3515 65.3997 22.3069 65.0532 22.2177C64.1616 21.9887 63.4807 21.5389 63.0288 20.8803C62.5952 20.2237 62.3662 19.3747 62.3479 18.3514C62.3398 17.3503 62.51 16.1649 62.8545 14.8275C63.3713 12.8173 64.0704 11.338 64.9296 10.4322C65.8354 9.46968 66.9762 9.15559 68.3157 9.50007C69.2215 9.73311 69.9064 10.185 70.3502 10.8415C70.7858 11.4839 71.0128 12.3249 71.027 13.3381C71.0472 14.3188 70.8851 15.4881 70.5447 16.8072C70.2022 18.1386 69.7767 19.2531 69.2802 20.1204C68.7777 21.008 68.1718 21.6442 67.4788 22.007C67.0431 22.236 66.5649 22.3515 66.0522 22.3515ZM63.4462 14.9794C63.1139 16.2662 62.9498 17.399 62.9579 18.3453C62.9741 19.247 63.1686 19.9887 63.5354 20.5419C63.9022 21.0789 64.4513 21.4355 65.2072 21.6301C65.9691 21.8246 66.6196 21.7739 67.1991 21.47C67.7868 21.162 68.3096 20.6088 68.7534 19.8225C69.2235 18.9998 69.6288 17.9359 69.957 16.6573C70.2833 15.3908 70.4393 14.2783 70.4191 13.3502C70.4069 12.4546 70.2144 11.7271 69.8476 11.184C69.4849 10.647 68.9337 10.2883 68.1637 10.0918C67.039 9.80201 66.1272 10.0513 65.3713 10.8537C64.5851 11.6805 63.9366 13.0706 63.4462 14.9794Z" fill="#073E36"/>
<path d="M66.8207 25.8204C64.7416 25.8204 62.545 25.1638 60.861 23.9703C59.09 22.716 58.0889 21.0361 57.9613 19.111C57.6938 15.7107 58.6462 10.7481 61.3656 7.90099C62.7415 6.46225 64.389 5.75909 66.2553 5.82393C66.4235 5.83001 66.5552 5.96983 66.5491 6.13802C66.543 6.30216 66.4093 6.43185 66.2452 6.43185C66.2411 6.43185 66.2391 6.43185 66.235 6.43185C64.547 6.37714 63.0556 7.0114 61.8053 8.32045C59.3291 10.9122 58.3037 15.6884 58.5692 19.0664C58.7131 21.261 60.0869 22.6734 61.2136 23.4718C63.3758 25.0038 66.5674 25.6036 68.9747 24.9328C72.2068 23.8426 73.4753 20.6733 74.2879 17.7189C76.5575 9.76324 71.5685 7.58487 69.9859 7.10664C69.8258 7.05801 69.7346 6.88779 69.7832 6.7277C69.8319 6.56762 70.0021 6.47643 70.1622 6.52507C75.5605 8.15429 76.136 13.4614 74.8735 17.883C74.0184 20.9895 72.6709 24.3269 69.153 25.5124C68.4175 25.7211 67.6292 25.8204 66.8207 25.8204Z" fill="#073E36"/>
<path d="M75.3121 0.711468C75.3222 0.717547 75.3303 0.723626 75.3384 0.729705C75.6261 0.950582 76.1226 1.39639 76.4387 2.12386C76.4914 2.24545 76.6252 2.5717 76.69 3.01345C76.8622 4.19686 76.3982 5.15332 76.1672 5.5586C75.9321 5.95375 75.5106 6.53127 74.8095 7.0095C73.3262 8.01662 71.7152 7.80182 71.2897 7.7309C71.2572 7.72482 71.0586 7.69037 70.9452 7.51002C70.8763 7.40262 70.8722 7.29522 70.8722 7.24659C70.8722 7.18985 70.8682 7.00139 71.0161 6.86765C71.1782 6.72175 71.3869 6.7562 71.4133 6.76228C71.7861 6.79875 71.9766 6.81699 72.0496 6.82712C72.0658 6.82915 72.1266 6.83726 72.2056 6.84131C72.2319 6.84333 72.2562 6.84333 72.2826 6.84536C72.2826 6.84536 72.3778 6.84739 72.471 6.84333C72.6433 6.83523 73.0405 6.81497 73.4457 6.60827C73.6747 6.49074 73.924 6.25771 73.8814 6.27594C73.853 6.2881 73.776 6.30634 73.6403 6.31647C73.5876 6.32052 72.3211 6.50493 71.2998 5.79974C70.3069 5.11482 69.8144 3.7774 70.0677 2.55143C70.1002 2.39945 70.3879 1.10864 71.6017 0.429799C71.9199 0.255529 72.4042 0.0508634 73.0121 0.0285731C73.5937 0.00628278 74.0273 0.156236 74.5238 0.328479C74.5218 0.330506 74.9372 0.472353 75.3121 0.711468Z" fill="#2A9D8F"/>
<path d="M72.7288 8.32635C72.5585 8.32635 72.4147 8.31825 72.3012 8.31014C72.2161 8.30406 71.9202 8.26151 71.7257 7.99808C71.6386 7.88257 71.5859 7.74275 71.5737 7.58672C71.5535 7.33544 71.6183 7.13078 71.7683 6.97272C71.9506 6.77819 72.206 6.72753 72.3883 6.74171C72.7551 6.74779 72.9436 6.75184 73.0145 6.7559C73.0348 6.7559 73.0814 6.75792 73.1442 6.75792C72.7835 6.70118 72.4005 6.58365 72.0297 6.37088C70.9091 5.72244 70.2444 4.32625 70.4126 2.97465C70.445 2.71324 70.6659 1.36772 71.8878 0.55108C72.2141 0.350467 72.5565 0.204566 72.9111 0.113379C73.2212 0.0323228 74.0459 -0.119657 75.0145 0.184302C75.0591 0.196461 76.356 0.559185 77.0267 1.63723L77.2172 1.94524C77.3226 2.1418 77.4665 2.46197 77.5617 2.87738C77.8191 4.00203 77.5212 4.98888 77.2274 5.61909C76.9072 6.26956 76.4675 6.82074 75.9203 7.26047C74.7896 8.16424 73.5028 8.32635 72.7288 8.32635ZM72.3296 7.34558C72.3052 7.34558 72.2485 7.34963 72.212 7.38813C72.1776 7.42461 72.1776 7.48135 72.1816 7.53606C72.1837 7.56645 72.1897 7.6009 72.2141 7.63332C72.2607 7.69614 72.3437 7.70425 72.3519 7.70425C72.9091 7.75086 74.3337 7.75288 75.5434 6.78224C76.0196 6.39925 76.4026 5.91697 76.6823 5.35161C76.9335 4.81461 77.1909 3.96555 76.972 3.00909C76.889 2.6484 76.7613 2.37483 76.6883 2.23704L76.5141 1.95537C75.973 1.08402 74.8585 0.767904 74.8484 0.763851C74.0196 0.504473 73.3286 0.632135 73.0672 0.699006C72.7713 0.776009 72.4856 0.897593 72.2201 1.0597C71.209 1.73652 71.0367 2.91385 71.0205 3.04557C70.8827 4.16211 71.4238 5.3131 72.3397 5.84199C73.1806 6.32833 74.1695 6.18851 74.4532 6.13379L74.4856 6.12771C74.591 6.11353 74.6336 6.09529 74.6336 6.09529C74.7734 6.02437 74.9517 6.07908 75.0328 6.22093C75.1969 6.51476 74.7815 6.82885 74.5201 6.99096C74.0743 7.26655 73.6265 7.32126 73.4583 7.34152C73.3569 7.35368 73.2516 7.35976 73.2516 7.35976C73.2252 7.36179 73.1969 7.36179 73.1665 7.36381C73.0793 7.36584 73.0165 7.36179 72.9922 7.36179C72.9192 7.35774 72.7328 7.35368 72.3681 7.3476L72.3397 7.34558C72.3417 7.34558 72.3356 7.34558 72.3296 7.34558Z" fill="#073E36"/>
<path d="M2.97828 16.3488H9.24997V11.1309H11.7262V23.8039H9.24997V18.2921H2.97828V23.8039H0.5V11.1309H2.97828V16.3488Z" fill="#2A9D8F"/>
<path d="M27.5471 17.4676C27.5471 18.4342 27.4012 19.3197 27.1074 20.1242C26.8136 20.9287 26.386 21.6217 25.8227 22.2033C25.2593 22.7848 24.5683 23.2367 23.7497 23.5569C22.931 23.8791 21.9989 24.0392 20.9533 24.0392C19.9076 24.0392 18.9755 23.8791 18.1568 23.5569C17.3382 23.2347 16.6472 22.7828 16.0838 22.2033C15.5205 21.6217 15.0929 20.9287 14.7991 20.1242C14.5053 19.3197 14.3594 18.4342 14.3594 17.4676C14.3594 16.501 14.5053 15.6155 14.7991 14.811C15.0929 14.0065 15.5205 13.3135 16.0838 12.7319C16.6472 12.1503 17.3382 11.7005 18.1568 11.3783C18.9755 11.0561 19.9076 10.896 20.9533 10.896C21.9989 10.896 22.931 11.0561 23.7497 11.3783C24.5683 11.7005 25.2593 12.1524 25.8227 12.7319C26.386 13.3135 26.8136 14.0065 27.1074 14.811C27.3992 15.6155 27.5471 16.501 27.5471 17.4676ZM24.9878 17.4676C24.9878 16.6976 24.8865 16.0228 24.6839 15.4453C24.4812 14.8677 24.2016 14.3854 23.8449 14.0004C23.4883 13.6154 23.0627 13.3277 22.5703 13.1392C22.0779 12.9508 21.5389 12.8555 20.9512 12.8555C20.3656 12.8555 19.8246 12.9508 19.3321 13.1392C18.8397 13.3277 18.4142 13.6154 18.0575 14.0004C17.7009 14.3854 17.4213 14.8677 17.2186 15.4453C17.016 16.0228 16.9147 16.6976 16.9147 17.4676C16.9147 18.2376 17.016 18.9124 17.2186 19.4899C17.4213 20.0675 17.7009 20.5477 18.0575 20.9287C18.4142 21.3117 18.8397 21.5974 19.3321 21.7899C19.8246 21.9824 20.3636 22.0797 20.9512 22.0797C21.5369 22.0797 22.0779 21.9844 22.5703 21.7899C23.0627 21.5974 23.4863 21.3096 23.8449 20.9287C24.2016 20.5477 24.4812 20.0675 24.6839 19.4899C24.8865 18.9104 24.9878 18.2376 24.9878 17.4676Z" fill="#2A9D8F"/>
<path d="M37.1346 20.4036C37.4305 19.4067 37.7993 18.3367 38.237 17.1918L40.5734 11.1309H44.0527V23.8039H41.5745V17.3823C41.5745 16.442 41.615 15.3498 41.696 14.1056H41.6049C41.4894 14.4663 41.3556 14.8696 41.1996 15.3174C41.0435 15.7652 40.8835 16.207 40.7132 16.6426L37.9107 23.8039H36.3119L33.5094 16.6426C33.3412 16.207 33.1791 15.7652 33.0231 15.3174C32.8671 14.8696 32.7333 14.4643 32.6178 14.1056H32.5266C32.6077 15.2748 32.6482 16.363 32.6482 17.3742V23.806H30.1699V11.1309H33.629L35.9654 17.1634C36.3565 18.1665 36.7233 19.2466 37.0678 20.4036H37.1346Z" fill="#2A9D8F"/>
<path d="M49.7673 21.8606H56.422V23.8019H47.2891V11.1309H56.0573V13.0721H49.7653V16.3488H55.1657V18.2901H49.7653V21.8606H49.7673Z" fill="#2A9D8F"/>
<path d="M78.0215 23.8039V11.1309H80.4998V23.8039H78.0215Z" fill="#2A9D8F"/>
</g>
<defs>
<clipPath id="clip0_3917_3665">
<rect width="80" height="26.7646" fill="white" transform="translate(0.5)"/>
</clipPath>
</defs>
</svg>
